<?xml version="1.0"?>

<svg width="100%" height="100%" viewBox="0 0 562 369" version="1.1" xmlns="http://www.w3.org/2000/svg" xmlns:xlink="http://www.w3.org/1999/xlink" xml:space="preserve" xmlns:serif="http://www.serif.com/" style="fill-rule:evenodd;clip-rule:evenodd;stroke-linejoin:round;stroke-miterlimit:2;">
    <g id="VG" transform="matrix(1,0,0,1,-696,73)">
        <rect x="696" y="-73" width="562" height="369" style="fill:none;"></rect>
        <g transform="matrix(8.693433,0,0,8.693433,-7671.335362,-8770.706084)">
            <g transform="matrix(1,0,0,1,994.8125,1002.9085)">
                <path d="M0,37.612L31.187,18.993L31.187,18.619L0,0L-31.187,18.619L-31.187,18.993L0,37.612ZM0,32.004L-22.105,18.806L0,5.609L22.105,18.806L0,32.004Z" style="fill-rule:nonzero;"></path>
            </g>
            <g transform="matrix(1,0,0,1,1008.8203,1021.5751)">
                <path d="M0,0.169L0,0L-14.077,-8.404L-28.154,0L-28.154,0.169L-14.077,8.573L0,0.169Z" style="fill-rule:nonzero;"></path>
            </g>
        </g>
    </g>
</svg>